# File created by Blade
# Date/Time:  Tue Sep 30 19:36:36 2014
#---------------------------------------------------------
:version 1.10
:name HOM
:units
  mass 1.0
  length 1.000000
  angle deg
:documentation
     Acclaim Skeleton File
:root
   axis xyz
   order TX TY TZ RX RY RZ
   position 0.000000 0.000000 0.000000
   orientation 0 0 0
:bonedata
   begin
      id 1
      name Spine_dum
      direction 0.000000 1.000000 0.000000
      length 3.241213
      axis 0.0 0.0 0.0 xyz
   end
   begin
      id 2
      name LeftUpLeg_dum
      direction 1.000000 0.000000 0.000000
      length 3.434019
      axis 0.0 0.0 0.0 xyz
   end
   begin
      id 3
      name RightUpLeg_dum
      direction -1.000000 0.000000 0.000000
      length 3.434019
      axis 0.0 0.0 0.0 xyz
   end
   begin
      id 4
      name Spine
      direction 0.000000 1.000000 0.000000
      length 0.000000
      axis 0.0 0.0 0.0 xyz
      dof rx ry rz
   end
   begin
      id 5
      name Spine_dum1
      direction 0.000000 1.000000 0.000000
      length 18.382958
      axis 0.0 0.0 0.0 xyz
   end
   begin
      id 6
      name Spine_dum2
      direction 0.000000 1.000000 0.000000
      length 12.828261
      axis 0.0 0.0 0.0 xyz
   end
   begin
      id 7
      name Spine_dum3
      direction 0.000000 1.000000 0.000000
      length 12.828261
      axis 0.0 0.0 0.0 xyz
   end
   begin
      id 8
      name Head
      direction 0.000000 1.000000 0.000000
      length 4.527550
      axis 0.0 0.0 0.0 xyz
      dof rx ry rz
   end
   begin
      id 9
      name LeftShoulder
      direction 1.000000 0.000000 0.000000
      length 7.748055
      axis 0.0 0.0 -90.0 xyz
      dof rx ry rz
   end
   begin
      id 10
      name LeftArm
      direction 1.000000 0.000000 0.000000
      length 10.635614
      axis 0.0 0.0 -90.0 xyz
      dof rx ry rz
   end
   begin
      id 11
      name LeftForeArm
      direction 1.000000 0.000000 0.000000
      length 8.346755
      axis 0.0 0.0 -90.0 xyz
      dof ry rz rx
   end
   begin
      id 12
      name LeftHand
      direction 0.000000 0.000000 0.000000
      length 0.000000
      axis 0.0 0.0 -90.0 xyz
      dof rx ry rz
   end
   begin
      id 13
      name LeftHand_dum1
      direction 0.000000 0.000000 0.000000
      length 0.000000
      axis 0.0 0.0 -90.0 xyz
   end
   begin
      id 14
      name LeftHand_dum2
      direction 1.000000 0.000000 0.000000
      length 3.937000
      axis 0.0 0.0 -90.0 xyz
   end
   begin
      id 15
      name LeftHandThumb1
      direction 0.000000 0.000000 1.000000
      length 3.937000
      axis 0.0 0.0 -90.0 xyz
      dof rx rz ry
   end
   begin
      id 16
      name RightShoulder
      direction -1.000000 0.000000 0.000000
      length 7.748055
      axis 0.0 0.0 90.0 xyz
      dof rx ry rz
   end
   begin
      id 17
      name RightArm
      direction -1.000000 0.000000 0.000000
      length 10.635614
      axis 0.0 0.0 90.0 xyz
      dof rx ry rz
   end
   begin
      id 18
      name RightForeArm
      direction -1.000000 0.000000 0.000000
      length 8.346755
      axis 0.0 0.0 90.0 xyz
      dof ry rz rx
   end
   begin
      id 19
      name RightHand
      direction 0.000000 0.000000 0.000000
      length 0.000000
      axis 0.0 0.0 90.0 xyz
      dof rx ry rz
   end
   begin
      id 20
      name RightHand_dum1
      direction 0.000000 0.000000 0.000000
      length 0.000000
      axis 0.0 0.0 90.0 xyz
   end
   begin
      id 21
      name RightHand_dum2
      direction -1.000000 0.000000 0.000000
      length 3.937000
      axis 0.0 0.0 90.0 xyz
   end
   begin
      id 22
      name RightHandThumb1
      direction 0.000000 0.000000 1.000000
      length 3.937000
      axis 0.0 0.0 90.0 xyz
      dof rx rz ry
   end
   begin
      id 23
      name LeftUpLeg
      direction 0.000000 -1.000000 0.000000
      length 15.713025
      axis 0.0 0.0 0.0 xyz
      dof rx ry rz
   end
   begin
      id 24
      name LeftLeg
      direction 0.000000 -1.000000 0.000000
      length 14.435119
      axis 0.0 0.0 0.0 xyz
      dof rx ry rz
   end
   begin
      id 25
      name LeftFoot
      direction 0.000000 -0.258819 0.965926
      length 4.938895
      axis 15.0 0.0 0.0 xyz
      dof rx ry rz
   end
   begin
      id 26
      name LeftToeBase
      direction 0.000000 0.000000 1.000000
      length 2.952750
      axis 0.0 0.0 0.0 xyz
      dof rx ry rz
   end
   begin
      id 27
      name RightUpLeg
      direction 0.000000 -1.000000 0.000000
      length 15.713025
      axis 0.0 0.0 0.0 xyz
      dof rx ry rz
   end
   begin
      id 28
      name RightLeg
      direction 0.000000 -1.000000 0.000000
      length 14.435119
      axis 0.0 0.0 0.0 xyz
      dof rx ry rz
   end
   begin
      id 29
      name RightFoot
      direction 0.000000 -0.258819 0.965926
      length 4.938895
      axis 15.0 0.0 0.0 xyz
      dof rx ry rz
   end
   begin
      id 30
      name RightToeBase
      direction 0.000000 0.000000 1.000000
      length 2.952750
      axis 0.0 0.0 0.0 xyz
      dof rx ry rz
   end
:hierarchy
   begin
      root Spine_dum LeftUpLeg_dum RightUpLeg_dum
      Spine_dum Spine
      LeftUpLeg_dum LeftUpLeg
      RightUpLeg_dum RightUpLeg
      Spine Spine_dum1 Spine_dum2 Spine_dum3
      Spine_dum1 Head
      Spine_dum2 LeftShoulder
      Spine_dum3 RightShoulder
      LeftShoulder LeftArm
      LeftArm LeftForeArm
      LeftForeArm LeftHand
      LeftHand LeftHand_dum1 LeftHand_dum2
      LeftHand_dum1 LeftHandThumb1
      RightShoulder RightArm
      RightArm RightForeArm
      RightForeArm RightHand
      RightHand RightHand_dum1 RightHand_dum2
      RightHand_dum1 RightHandThumb1
      LeftUpLeg LeftLeg
      LeftLeg LeftFoot
      LeftFoot LeftToeBase
      RightUpLeg RightLeg
      RightLeg RightFoot
      RightFoot RightToeBase
   end

# File created by Blade
# Date/Time:  Tue Sep 23 19:22:32 2014
# Frame Rate: 120.000 fps
#------------------------------------------------------
:FULLY-SPECIFIED
:DEGREES
1188
root 1.057993 33.663729 -0.273222 111.472323 17.553088 -22.043785
Spine -67.438289 -5.829742 25.317939
Head -31.920319 16.770712 34.770529
LeftShoulder -16.438782 29.055655 41.355036
LeftArm 93.998549 -48.287665 -89.740600
LeftForeArm 31.859873 -0.000000 85.226954
LeftHand 25.362959 -0.000000 30.210834
LeftHandThumb1 -26.253704 0.000000 33.147579
RightShoulder -36.196746 -40.924585 -5.724721
RightArm 39.964509 65.416268 96.948112
RightForeArm 36.176577 -0.000000 33.032218
RightHand 2.714644 0.000000 -9.974350
RightHandThumb1 -24.326973 -0.000000 -32.862282
LeftUpLeg -112.857277 22.623514 1.565527
LeftLeg -5.747238 -0.000000 0.000000
LeftFoot 0.075403 3.314422 7.183354
LeftToeBase 0.196584 -0.000000 -0.000000
RightUpLeg 2.345983 13.306486 -34.226282
RightLeg 79.179136 -0.000000 -0.000000
RightFoot 42.411575 22.551569 -6.698637
RightToeBase 31.326321 -0.000000 -0.000000
1189
root 1.048607 33.672815 -0.214827 110.406639 17.509295 -21.750644
Spine -66.814904 -6.028697 25.407052
Head -31.666504 16.631769 34.317361
LeftShoulder -16.383029 29.195761 41.095575
LeftArm 92.353551 -47.937313 -88.044758
LeftForeArm 32.933982 -0.000000 85.087841
LeftHand 24.256531 -0.000000 31.425418
LeftHandThumb1 -26.253704 0.000000 33.147579
RightShoulder -36.323791 -41.176198 -5.515058
RightArm 39.577153 64.966691 96.567146
RightForeArm 36.917942 -0.000000 32.432035
RightHand 3.148610 -0.000000 -9.602351
RightHandThumb1 -24.326973 -0.000000 -32.862282
LeftUpLeg -111.622590 22.463927 2.434883
LeftLeg -5.135212 -0.000000 0.000000
LeftFoot -0.996186 2.641118 7.316444
LeftToeBase -0.345371 -0.000000 0.000000
RightUpLeg 2.543367 13.536987 -33.907900
RightLeg 79.478967 -0.000000 -0.000000
RightFoot 42.379553 22.403714 -6.602946
RightToeBase 31.231519 -0.000000 -0.000000
1190
root 1.043726 33.679353 -0.152879 109.379170 17.381449 -21.360604
Spine -66.281496 -6.301285 25.377397
Head -31.347842 16.433333 33.950205
LeftShoulder -16.260968 29.406524 40.868397
LeftArm 90.933423 -47.548667 -86.522658
LeftForeArm 33.184470 -0.000000 84.917741
LeftHand 24.073744 -0.000000 32.035096
LeftHandThumb1 -26.253704 0.000000 33.147579
RightShoulder -36.396064 -41.428930 -5.347012
RightArm 39.164196 64.616381 96.230213
RightForeArm 37.717930 -0.000000 31.720082
RightHand 3.651826 -0.000000 -9.046664
RightHandThumb1 -24.326973 -0.000000 -32.862282
LeftUpLeg -110.356281 22.195900 3.358428
LeftLeg -4.496298 -0.000000 0.000000
LeftFoot -2.104149 2.014507 7.041479
LeftToeBase -0.400212 -0.000000 0.000000
RightUpLeg 2.764268 13.625517 -33.652251
RightLeg 79.813689 -0.000000 -0.000000
RightFoot 42.381708 22.075790 -6.524869
RightToeBase 31.132512 -0.000000 -0.000000
1191
root 1.037694 33.691130 -0.085720 108.391810 17.354014 -21.035150
Spine -65.747733 -6.406115 25.339840
Head -31.085735 16.221812 33.508483
LeftShoulder -16.072742 29.527458 40.686910
LeftArm 89.431618 -47.103072 -84.920027
LeftForeArm 33.699560 -0.000000 84.840184
LeftHand 23.620768 -0.000000 32.696175
LeftHandThumb1 -26.253704 0.000000 33.147579
RightShoulder -36.658752 -41.796036 -5.009994
RightArm 38.790129 64.141271 95.918150
RightForeArm 38.628323 -0.000000 31.048097
RightHand 3.994410 0.000000 -8.654712
RightHandThumb1 -24.326973 -0.000000 -32.862282
LeftUpLeg -109.143544 22.076050 4.476898
LeftLeg -3.782256 -0.000000 0.000000
LeftFoot -2.959716 1.081746 5.901596
LeftToeBase -1.105552 -0.000000 0.000000
RightUpLeg 2.798485 13.752601 -33.356488
RightLeg 80.234361 -0.000000 -0.000000
RightFoot 42.201553 21.881835 -6.559489
RightToeBase 31.434948 -0.000000 -0.000000
1192
root 1.032595 33.693945 -0.014800 107.288242 17.381111 -20.640997
Spine -65.137311 -6.631668 25.471368
Head -30.699341 16.105567 33.134161
LeftShoulder -15.987228 29.697605 40.466069
LeftArm 87.802221 -46.612109 -83.170974
LeftForeArm 34.169924 0.000000 84.810723
LeftHand 23.092908 0.000000 33.398510
LeftHandThumb1 -26.253704 0.000000 33.147579
RightShoulder -36.655065 -42.083817 -4.875045
RightArm 38.206683 63.701391 95.427182
RightForeArm 39.522659 -0.000000 30.415493
RightHand 4.369279 -0.000000 -8.227889
RightHandThumb1 -24.326973 -0.000000 -32.862282
LeftUpLeg -107.772652 21.913714 5.883857
LeftLeg -3.014199 -0.000000 0.000000
LeftFoot -3.568019 0.210417 5.083268
LeftToeBase -2.260701 -0.000000 0.000000
RightUpLeg 2.944291 13.910916 -32.956567
RightLeg 80.629787 -0.000000 -0.000000
RightFoot 42.080387 21.846995 -6.617483
RightToeBase 31.318299 -0.000000 -0.000000
1193
root 1.041117 33.695046 0.054728 106.256537 17.324755 -20.226594
Spine -64.583189 -6.787068 25.448473
Head -30.389753 15.896263 32.705501
LeftShoulder -15.810023 29.748433 40.313670
LeftArm 86.176947 -46.027450 -81.522484
LeftForeArm 34.069229 -0.000000 84.823552
LeftHand 23.143927 -0.000000 33.744006
LeftHandThumb1 -26.253704 0.000000 33.147579
RightShoulder -36.852422 -42.374194 -4.667317
RightArm 37.843310 63.182835 95.155060
RightForeArm 40.169087 -0.000000 29.759230
RightHand 4.780558 -0.000000 -8.107564
RightHandThumb1 -24.326973 -0.000000 -32.862282
LeftUpLeg -106.441663 21.690926 7.387003
LeftLeg -2.169802 -0.000000 0.000000
LeftFoot -4.213932 -0.619182 3.955550
LeftToeBase -3.267151 -0.000000 0.000000
RightUpLeg 3.032802 14.042815 -32.655049
RightLeg 81.027543 -0.000000 -0.000000
RightFoot 41.801282 21.874135 -6.679783
RightToeBase 31.243909 -0.000000 -0.000000
1194
root 1.044855 33.694274 0.134294 105.224201 17.283299 -19.880307
Spine -64.058783 -6.883961 25.367151
Head -30.003062 15.772522 32.326937
LeftShoulder -15.620856 29.964784 40.196973
LeftArm 84.854196 -45.349839 -80.144277
LeftForeArm 33.982746 -0.000000 84.938161
LeftHand 23.243731 -0.000000 33.941270
LeftHandThumb1 -26.253704 0.000000 33.147579
RightShoulder -37.017442 -42.695031 -4.398999
RightArm 37.517280 62.717501 94.897474
RightForeArm 40.923364 -0.000000 29.017499
RightHand 5.139292 -0.000000 -8.120938
RightHandThumb1 -24.326973 -0.000000 -32.862282
LeftUpLeg -105.120909 21.528213 8.930289
LeftLeg -1.332973 -0.000000 0.000000
LeftFoot -4.698703 -1.293643 3.028030
LeftToeBase -3.482735 -0.000000 0.000000
RightUpLeg 2.980081 14.158008 -32.392872
RightLeg 81.500827 -0.000000 -0.000000
RightFoot 41.446036 21.835803 -6.936330
RightToeBase 31.264089 -0.000000 -0.000000
1195
root 1.058677 33.687580 0.215648 104.129140 17.205450 -19.589188
Spine -63.467295 -6.920693 25.222873
Head -29.621561 15.619627 31.969517
LeftShoulder -15.351860 30.043140 40.153802
LeftArm 83.187978 -44.717795 -78.503956
LeftForeArm 34.000777 -0.000000 85.169480
LeftHand 23.175918 0.000000 34.237900
LeftHandThumb1 -26.253704 0.000000 33.147579
RightShoulder -37.201986 -42.951686 -4.153982
RightArm 37.206779 62.239637 94.651320
RightForeArm 41.750023 -0.000000 28.216641
RightHand 5.692184 -0.000000 -7.964401
RightHandThumb1 -24.326973 -0.000000 -32.862282
LeftUpLeg -103.842693 21.318894 10.390410
LeftLeg -0.409296 -0.000000 0.000000
LeftFoot -4.721081 -1.998944 1.969700
LeftToeBase -4.586167 -0.000000 0.000000
RightUpLeg 2.885130 14.317172 -32.219480
RightLeg 81.999147 -0.000000 -0.000000
RightFoot 41.130390 21.829226 -7.268264
RightToeBase 31.181565 -0.000000 -0.000000
1196
root 1.074760 33.686622 0.297868 103.158867 17.113461 -19.368809
Spine -62.982284 -6.836183 25.058288
Head -29.214542 15.391718 31.658364
LeftShoulder -15.126573 30.203703 40.068298
LeftArm 81.861118 -43.973375 -77.207158
LeftForeArm 33.558434 -0.000000 85.431898
LeftHand 23.627699 -0.000000 34.018339
LeftHandThumb1 -26.253704 0.000000 33.147579
RightShoulder -37.370721 -43.213818 -3.902889
RightArm 36.933876 61.758247 94.487487
RightForeArm 42.446420 -0.000000 27.482353
RightHand 6.131367 -0.000000 -7.903407
RightHandThumb1 -24.326973 -0.000000 -32.862282
LeftUpLeg -102.727739 21.158351 11.852232
LeftLeg 0.625032 -0.000000 -0.000000
LeftFoot -4.895127 -1.876248 2.022547
LeftToeBase -3.549673 -0.000000 0.000000
RightUpLeg 2.507320 14.422793 -32.163075
RightLeg 82.617963 -0.000000 -0.000000
RightFoot 40.775673 21.729403 -7.627171
RightToeBase 31.281713 -0.000000 -0.000000
1197
root 1.090845 33.679529 0.388815 102.104884 17.024790 -19.253431
Spine -62.435386 -6.683819 24.875188
Head -28.765439 15.229437 31.369177
LeftShoulder -14.931348 30.517913 39.890851
LeftArm 80.706310 -43.273906 -75.858022
LeftForeArm 33.509195 -0.000000 85.684615
LeftHand 23.579473 0.000000 34.342864
LeftHandThumb1 -26.253704 0.000000 33.147579
RightShoulder -37.574351 -43.539127 -3.549081
RightArm 36.686790 61.124735 94.221771
RightForeArm 43.390289 -0.000000 26.593724
RightHand 6.719968 -0.000000 -7.774792
RightHandThumb1 -24.326973 -0.000000 -32.862282
LeftUpLeg -101.639859 21.018092 13.154846
LeftLeg 1.651668 -0.000000 -0.000000
LeftFoot -4.641220 -1.614211 1.539896
LeftToeBase -4.028680 -0.000000 0.000000
RightUpLeg 2.086001 14.732545 -32.042364
RightLeg 83.243879 -0.000000 -0.000000
RightFoot 40.588315 21.571115 -7.856386
RightToeBase 31.285574 -0.000000 -0.000000
1198
root 1.111108 33.666584 0.485012 101.091816 16.812668 -19.016306
Spine -61.969630 -6.675527 24.619552
Head -28.278716 15.078133 31.204772
LeftShoulder -14.813820 30.791888 39.688663
LeftArm 79.599384 -42.486266 -74.494868
LeftForeArm 33.425372 -0.000000 85.955605
LeftHand 23.575950 -0.000000 34.480657
LeftHandThumb1 -26.253704 0.000000 33.147579
RightShoulder -37.720950 -43.832000 -3.150442
RightArm 36.344791 60.435570 93.728626
RightForeArm 44.792285 -0.000000 25.508995
RightHand 7.696442 -0.000000 -7.408870
RightHandThumb1 -24.326973 -0.000000 -32.862282
LeftUpLeg -100.605662 20.663956 14.319157
LeftLeg 2.719372 -0.000000 -0.000000
LeftFoot -4.650761 -0.649190 2.168084
LeftToeBase -2.682781 -0.000000 0.000000
RightUpLeg 1.726727 14.921101 -32.002362
RightLeg 83.830118 -0.000000 -0.000000
RightFoot 40.649454 21.446390 -7.938322
RightToeBase 31.002481 -0.000000 -0.000000
1199
root 1.130825 33.652425 0.585419 100.145314 16.636457 -18.885527
Spine -61.559359 -6.502579 24.348242
Head -27.786427 14.882407 31.021353
LeftShoulder -14.647866 31.104305 39.462478
LeftArm 78.660828 -41.770020 -73.168847
LeftForeArm 33.435533 -0.000000 86.161985
LeftHand 23.508878 0.000000 34.760367
LeftHandThumb1 -26.253704 0.000000 33.147579
RightShoulder -37.927783 -44.147483 -2.655100
RightArm 36.010500 59.731989 93.226736
RightForeArm 46.506483 -0.000000 24.448409
RightHand 8.458541 -0.000000 -6.637989
RightHandThumb1 -24.326973 -0.000000 -32.862282
LeftUpLeg -99.744641 20.367736 15.308748
LeftLeg 3.811165 -0.000000 -0.000000
LeftFoot -4.548363 -0.136119 3.386568
LeftToeBase -0.544889 -0.000000 0.000000
RightUpLeg 1.163281 15.173751 -31.984938
RightLeg 84.439857 -0.000000 -0.000000
RightFoot 40.794060 21.398237 -7.782571
RightToeBase 30.846617 -0.000000 -0.000000
1200
root 1.153403 33.633242 0.687895 99.282632 16.360547 -18.645543
Spine -61.268239 -6.432029 24.035629
Head -27.259153 14.699152 30.865600
LeftShoulder -14.525438 31.401943 39.179343
LeftArm 77.757736 -41.083577 -71.743688
LeftForeArm 33.353558 -0.000000 86.323991
LeftHand 23.359425 -0.000000 35.037830
LeftHandThumb1 -26.253704 0.000000 33.147579
RightShoulder -38.070435 -44.444444 -2.199627
RightArm 35.570021 58.888322 92.439276
RightForeArm 48.122365 0.000000 23.034950
RightHand 9.538321 -0.000000 -5.863628
RightHandThumb1 -24.326973 -0.000000 -32.862282
LeftUpLeg -99.011361 19.874106 16.024692
LeftLeg 4.857551 -0.000000 -0.000000
LeftFoot -4.510981 0.214426 4.096768
LeftToeBase 1.100084 -0.000000 -0.000000
RightUpLeg 0.627425 15.295396 -32.040029
RightLeg 85.004967 -0.000000 -0.000000
RightFoot 40.973805 21.462944 -7.669224
RightToeBase 30.740426 -0.000000 -0.000000
